<svg width="427" height="283" viewBox="0 0 427 283" fill="none" xmlns="http://www.w3.org/2000/svg">
<path d="M23.4039 126.439C25.7712 131.08 26.7157 136.317 26.1191 141.493C25.5612 145.909 24.0269 150.187 24.5848 154.687C25.4589 161.791 30.4428 167.454 34.469 173.042C36.8086 176.038 38.6889 179.366 40.048 182.917C41.5172 187.287 41.1638 191.834 40.3456 196.297C38.802 204.777 36.6262 212.746 41.3777 220.622C43.9998 224.955 47.5425 228.628 50.0066 233.063C52.6632 237.958 54.3254 243.33 54.8975 248.87C54.9533 249.372 55.9203 249.54 55.8738 248.972C55.5463 244.322 54.3972 239.767 52.4799 235.518C50.5366 231.222 47.7099 227.614 44.9204 223.858C42.1308 220.101 39.704 215.954 39.4529 211.054C39.2205 206.479 40.3828 201.969 41.3126 197.525C42.1123 193.443 42.7073 189.23 41.8426 185.111C41.0173 181.668 39.5539 178.41 37.5282 175.506C33.4555 169.35 27.6998 163.725 26.0075 156.342C24.7708 150.93 26.9373 145.807 27.2907 140.451C27.6672 135.489 26.4804 130.534 23.8968 126.28C23.7015 125.964 23.218 126.039 23.4132 126.439H23.4039Z" fill="#37474F"/>
<path d="M181.404 71.1319C183.771 75.7732 184.716 81.0101 184.119 86.186C183.561 90.6027 182.027 94.8799 182.585 99.3803C183.459 106.484 188.443 112.147 192.469 117.735C194.809 120.732 196.689 124.06 198.048 127.61C199.517 131.98 199.164 136.527 198.346 140.991C196.802 149.471 194.626 157.439 199.378 165.315C202 169.648 205.542 173.321 208.007 177.756C210.663 182.651 212.325 188.023 212.898 193.563C212.953 194.066 213.92 194.233 213.874 193.666C213.546 189.016 212.397 184.46 210.48 180.211C208.537 175.915 205.71 172.307 202.92 168.551C200.131 164.794 197.704 160.647 197.453 155.747C197.22 151.172 198.383 146.663 199.313 142.218C200.112 138.136 200.707 133.924 199.843 129.805C199.017 126.361 197.554 123.103 195.528 120.199C191.455 114.044 185.7 108.418 184.007 101.035C182.771 95.6238 184.937 90.5004 185.291 85.1445C185.667 80.1824 184.48 75.227 181.897 70.9738C181.701 70.6577 181.218 70.7321 181.413 71.1319H181.404Z" fill="#37474F"/>
<path d="M22.1767 134.38C21.9442 132.901 24.3897 128.345 24.9662 128.261C25.5427 128.178 28.9366 131.72 29.1876 133.301C29.2048 133.615 29.1391 133.928 28.9971 134.209C28.8551 134.49 28.6418 134.728 28.3787 134.9C27.672 135.411 26.8541 135.746 25.9925 135.879C25.1309 136.011 24.2501 135.937 23.4226 135.663C23.1174 135.581 22.8397 135.419 22.6188 135.193C22.3979 134.968 22.242 134.687 22.1674 134.38H22.1767Z" fill="#DCE5FF"/>
<path opacity="0.1" d="M22.1767 134.38C21.9442 132.901 24.3897 128.345 24.9662 128.261C25.5427 128.178 28.9366 131.72 29.1876 133.301C29.2048 133.615 29.1391 133.928 28.9971 134.209C28.8551 134.49 28.6418 134.728 28.3787 134.9C27.672 135.411 26.8541 135.746 25.9925 135.879C25.1309 136.011 24.2501 135.937 23.4226 135.663C23.1174 135.581 22.8397 135.419 22.6188 135.193C22.3979 134.968 22.242 134.687 22.1674 134.38H22.1767Z" fill="black"/>
<path d="M0.306846 104.746C2.01774 116.108 13.1758 129.089 25.2637 130.009C36.4868 124.932 43.2188 109.785 41.4707 98.3949C39.7226 87.0044 30.7776 77.5479 17.5274 79.5843C4.27725 81.6206 -1.44125 93.3831 0.306846 104.746Z" fill="#DCE5FF"/>
<path d="M158.307 49.439C160.018 60.8016 171.176 73.7821 183.264 74.7027C194.487 69.6258 201.219 54.4787 199.471 43.0882C197.723 31.6977 188.778 22.2413 175.527 24.2776C162.277 26.314 156.559 38.0764 158.307 49.439Z" fill="#DCE5FF"/>
<path opacity="0.05" d="M41.4798 104.504C41.4798 104.504 40.1409 115.876 26.7326 118.814C13.8637 121.659 1.08774 109.004 0.0370293 99.4922C-0.0536721 101.248 0.0366878 103.008 0.306681 104.746C2.01758 116.108 13.1756 129.089 25.2635 130.009C34.5618 125.807 40.7732 114.686 41.6379 104.532L41.4798 104.504Z" fill="black"/>
<path d="M401.02 171.452C398.92 174.381 397.5 177.742 396.863 181.289C396.25 184.813 396.863 188.328 397.04 191.862C397.319 196.511 396.315 200.407 393.228 203.949C390.782 206.739 387.825 209.063 385.612 212.076C381.168 218.129 380.163 224.899 381.075 232.216C382.107 240.501 384.031 248.293 380.042 256.16C377.904 260.381 375.077 264.231 373.58 268.768C372.242 273.185 371.67 277.799 371.888 282.409C371.888 282.92 372.864 283.078 372.873 282.511C372.797 278.113 373.364 273.728 374.556 269.494C375.775 265.607 377.969 262.194 379.959 258.67C381.976 255.355 383.245 251.639 383.678 247.782C383.86 244.314 383.626 240.836 382.981 237.424C382.367 233.453 381.623 229.427 381.818 225.401C382.061 221.404 383.326 217.536 385.491 214.168C389.304 208.115 396.705 204.396 397.979 196.873C398.593 193.228 397.812 189.528 397.635 185.883C397.393 180.824 399.058 176.212 401.503 171.861C401.661 171.591 401.206 171.154 401.001 171.442L401.02 171.452Z" fill="#37474F"/>
<path d="M304.177 126.528C302.078 129.457 300.658 132.818 300.02 136.365C299.407 139.89 300.02 143.404 300.197 146.938C300.476 151.587 299.472 155.483 296.385 159.026C293.939 161.815 290.982 164.14 288.769 167.152C284.325 173.206 283.321 179.975 284.232 187.293C285.264 195.577 287.189 203.369 283.2 211.236C281.061 215.457 278.234 219.307 276.737 223.844C275.4 228.262 274.827 232.875 275.045 237.485C275.045 237.997 276.021 238.155 276.031 237.587C275.955 233.189 276.522 228.804 277.714 224.57C278.932 220.683 281.126 217.27 283.116 213.746C285.133 210.431 286.402 206.715 286.835 202.858C287.018 199.39 286.783 195.912 286.138 192.5C285.524 188.529 284.78 184.503 284.976 180.477C285.219 176.48 286.483 172.613 288.649 169.244C292.461 163.191 299.862 159.472 301.136 151.949C301.75 148.305 300.969 144.604 300.792 140.959C300.55 135.901 302.215 131.289 304.66 126.937C304.818 126.667 304.363 126.23 304.158 126.518L304.177 126.528Z" fill="#37474F"/>
<path d="M402.238 179.765C402.554 178.296 400.378 173.601 399.829 173.47C399.281 173.34 395.645 176.678 395.301 178.241C395.263 178.552 395.307 178.868 395.429 179.157C395.552 179.446 395.748 179.698 395.999 179.886C396.674 180.436 397.47 180.82 398.321 181.008C399.172 181.195 400.055 181.18 400.899 180.965C401.207 180.9 401.493 180.754 401.728 180.544C401.963 180.333 402.139 180.065 402.238 179.765Z" fill="#DCE5FF"/>
<path opacity="0.1" d="M402.238 179.765C402.554 178.296 400.378 173.601 399.829 173.47C399.281 173.34 395.645 176.678 395.301 178.241C395.263 178.552 395.307 178.868 395.429 179.157C395.552 179.446 395.748 179.698 395.999 179.886C396.674 180.436 397.47 180.82 398.321 181.008C399.172 181.195 400.055 181.18 400.899 180.965C401.207 180.9 401.493 180.754 401.728 180.544C401.963 180.333 402.139 180.065 402.238 179.765Z" fill="black"/>
<path d="M425.949 151.637C423.485 162.86 411.555 175.106 399.448 175.255C388.569 169.462 382.823 153.924 385.296 142.71C387.77 131.496 397.3 122.589 410.402 125.471C423.503 128.354 428.422 140.358 425.949 151.637Z" fill="#DCE5FF"/>
<path d="M329.106 106.713C326.642 117.936 314.712 130.182 302.606 130.331C291.726 124.538 285.98 109 288.453 97.7864C290.927 86.5726 300.458 77.6648 313.559 80.5473C326.66 83.4298 331.579 95.434 329.106 106.713Z" fill="#DCE5FF"/>
<path opacity="0.05" d="M384.878 148.708C384.878 148.708 385.538 160.145 398.677 163.939C411.341 167.593 424.898 155.784 426.572 146.355C426.542 148.117 426.336 149.87 425.958 151.59C423.494 162.814 411.564 175.06 399.458 175.208C390.438 170.41 384.961 158.918 384.748 148.727L384.878 148.708Z" fill="black"/>
<path d="M262.669 9.92046C258.327 9.49274 252.441 16.7455 256.7 20.2323C259.062 22.1664 264.204 21.3296 264.139 17.7125C264.128 17.6122 264.085 17.518 264.016 17.4442C263.948 17.3704 263.857 17.321 263.757 17.3034C260.345 16.5223 256.96 17.9914 257.537 21.9525C257.846 23.6601 258.725 25.2123 260.031 26.3557C261.336 27.499 262.991 28.166 264.724 28.2475C264.929 28.2475 264.855 27.8942 264.724 27.857C261.749 27.234 258.941 25.3836 258.355 22.2036C258.223 21.6408 258.212 21.0563 258.322 20.4889C258.433 19.9214 258.663 19.3839 258.997 18.912C259.394 18.434 259.92 18.0792 260.512 17.8892C261.024 17.7311 262.855 17.4428 263.302 17.8892C264.101 18.7167 261.926 20.1208 261.275 20.3439C260.632 20.5746 259.946 20.6608 259.267 20.5965C258.587 20.5322 257.929 20.319 257.341 19.972C255.538 18.7074 255.984 16.327 256.858 14.644C258.039 12.3659 260.103 10.5156 262.762 10.4226C263.004 10.4226 262.874 9.96695 262.688 9.94836L262.669 9.92046Z" fill="#DCE5FF"/>
<path d="M264.111 152.78C265.478 149.703 265.329 146.513 269.309 145.5C271.057 145.054 275.194 144.644 276.505 146.197C276.744 146.572 276.841 147.02 276.778 147.46C276.715 147.901 276.496 148.303 276.161 148.596C275.129 149.526 274.358 148.41 274.088 147.425C273.88 146.515 273.96 145.563 274.317 144.7C274.673 143.837 275.288 143.106 276.078 142.608C277.747 141.508 279.769 141.074 281.743 141.391C283.717 141.707 285.501 142.752 286.743 144.319C286.892 144.505 287.05 144.319 286.985 144.114C283.935 137.094 269.318 141.976 273.967 148.708C275.39 150.744 277.9 148.95 277.426 146.792C276.905 144.403 272.833 144.524 271.029 144.644C269.201 144.645 267.438 145.325 266.082 146.551C264.492 148.113 264.278 150.586 263.943 152.687C263.943 152.78 264.027 152.92 264.092 152.78H264.111Z" fill="#DCE5FF"/>
<path d="M368.373 1.82208C371.228 0.98523 375.152 1.21769 377.541 3.14245C379.401 4.63019 380.442 7.85672 377.718 8.96323C376.649 9.39095 373.125 9.39095 372.706 7.9404C372.409 6.92688 373.497 6.32249 374.371 6.19231C376.928 5.79248 379.327 8.48901 379.261 10.8973C379.178 14.5143 374.966 15.7138 371.99 15.7417C371.795 15.7417 371.841 16.1137 371.99 16.123C377.058 16.6158 382.711 11.9201 378.201 7.21513C376.993 5.95055 375.096 5.04861 373.348 5.74599C372.362 6.14582 371.581 7.03846 372.074 8.10777C372.864 9.82797 376.044 10.1255 377.588 9.6885C377.997 9.57963 378.38 9.38799 378.712 9.12541C379.044 8.86284 379.319 8.53492 379.519 8.16192C379.72 7.78893 379.841 7.37878 379.877 6.95684C379.913 6.5349 379.861 6.11013 379.726 5.7088C378.48 1.134 372.074 0.12978 368.28 1.55243C368.169 1.55243 368.215 1.85928 368.345 1.82208H368.373Z" fill="#DCE5FF"/>
<path d="M405.781 193.769C408.635 192.932 412.559 193.165 414.949 195.089C416.808 196.577 417.85 199.804 415.125 200.91C414.056 201.338 410.532 201.338 410.114 199.878C409.816 198.874 410.904 198.269 411.769 198.13C414.335 197.739 416.725 200.436 416.669 202.844C416.585 206.461 412.373 207.661 409.398 207.689C409.202 207.689 409.249 208.061 409.398 208.07C414.465 208.563 420.119 203.867 415.609 199.162C414.4 197.897 412.503 196.995 410.755 197.693C409.769 198.083 408.988 198.985 409.481 200.055C410.272 201.775 413.452 202.072 414.995 201.626C415.405 201.519 415.788 201.33 416.121 201.068C416.454 200.807 416.729 200.48 416.93 200.107C417.131 199.734 417.252 199.324 417.287 198.903C417.322 198.481 417.27 198.056 417.134 197.656C415.888 193.072 409.481 192.077 405.688 193.499C405.576 193.499 405.613 193.806 405.753 193.769H405.781Z" fill="#DCE5FF"/>
<path d="M384.859 54.7402C381.456 55.7537 378.294 61.7419 381.456 64.4663C384.143 66.7816 389.573 66.2609 388.671 61.8441C388.663 61.7938 388.641 61.7466 388.609 61.7074C388.576 61.6682 388.533 61.6384 388.485 61.621C384.915 60.7655 383.734 64.9312 384.487 67.6835C385.649 71.9608 389.964 71.905 393.079 69.6734C393.181 69.599 393.135 69.3014 392.986 69.3758C390.438 70.6497 386.867 71.7841 385.315 68.5297C384.487 66.7909 384.459 63.8805 386.059 62.5694C386.474 62.1812 387.024 61.9681 387.593 61.9743C388.783 62.1138 388.578 63.397 387.909 64.2152C386.84 65.517 384.692 65.3775 383.26 64.8754C378.359 63.1366 381.725 56.7858 384.924 55.0006C385.017 54.9448 384.999 54.703 384.859 54.7402Z" fill="#DCE5FF"/>
<path d="M309.18 39.7774C305.163 39.266 296.525 42.6506 298.775 48.146C299.975 51.0749 305.33 52.9532 307.088 49.5965C307.126 49.5051 307.126 49.4026 307.09 49.3106C307.053 49.2186 306.983 49.1445 306.893 49.1037C298.524 44.3615 289.709 58.058 298.589 63.0512C298.868 63.2093 298.859 62.7351 298.701 62.6142C297.934 62.0897 297.281 61.4176 296.777 60.6373C296.274 59.857 295.931 58.9841 295.769 58.0698C295.608 57.1555 295.63 56.218 295.834 55.3124C296.039 54.4067 296.422 53.5509 296.962 52.7951C297.867 51.3508 299.154 50.1856 300.681 49.4291C301.825 48.8898 304.698 48.1274 305.767 49.2432C306.251 49.7639 306.242 49.113 305.991 49.7174C305.752 50.0764 305.387 50.3321 304.968 50.4334C304.055 50.7233 303.07 50.6905 302.178 50.3404C300.319 49.6895 298.859 47.9786 299.389 45.9236C300.365 41.8045 305.609 40.3446 309.282 40.2795C309.533 40.2795 309.375 39.8053 309.18 39.7774Z" fill="#DCE5FF"/>
<path d="M327.46 2.70508C327.46 2.70508 327.219 7.20548 330.557 9.70674L334.053 8.63743C334.053 8.63743 331.719 7.52163 330.557 2.70508H327.46Z" fill="#455A64"/>
<path d="M268.565 111.654C268.565 111.654 268.314 116.155 271.652 118.656L275.157 117.587C275.157 117.587 272.814 116.471 271.652 111.654H268.565Z" fill="#455A64"/>
<path d="M297.148 162.367C297.148 162.367 296.897 166.858 300.244 169.36L303.74 168.3C303.74 168.3 301.406 167.174 300.244 162.367H297.148Z" fill="#37474F"/>
<path d="M406.738 25.2545C406.738 25.2545 404.693 29.2714 400.555 29.7642L398.054 27.0862C398.054 27.0862 400.639 27.2908 404.06 23.7109L406.738 25.2545Z" fill="#455A64"/>
<path d="M382.758 168.877C382.758 168.877 380.722 172.894 376.575 173.377L374.073 170.709C374.073 170.709 376.667 170.904 380.08 167.324L382.758 168.877Z" fill="#455A64"/>
<path d="M325.526 84.5138C325.526 84.5138 323.49 88.5307 319.343 89.0142L316.842 86.3455C316.842 86.3455 319.436 86.5408 322.849 82.9609L325.526 84.5138Z" fill="#DCE5FF"/>
<path d="M288.324 34.9439C288.324 34.9439 286.287 38.9608 282.15 39.4536L279.648 36.7757C279.648 36.7757 282.233 36.9803 285.655 33.4004L288.324 34.9439Z" fill="#455A64"/>
<path d="M365.584 40.9866C365.584 40.9866 361.111 41.5445 358.387 38.3738L359.214 34.8125C359.214 34.8125 360.488 37.072 365.37 37.8996L365.584 40.9866Z" fill="#DCE5FF"/>
<path d="M300.737 19.034C300.737 19.034 296.274 19.5919 293.549 16.4304L294.368 12.8691C294.368 12.8691 295.651 15.1193 300.532 15.9562L300.737 19.034Z" fill="#DCE5FF"/>
<path d="M225.541 9.27028C225.541 9.27028 221.078 9.82819 218.354 6.66674L219.172 3.10547C219.172 3.10547 220.455 5.35568 225.327 6.19253L225.541 9.27028Z" fill="#DCE5FF"/>
<path d="M279.044 69.264C279.044 69.264 274.581 69.8126 271.856 66.6511L272.675 63.0898C272.675 63.0898 273.958 65.3493 278.839 66.1769L279.044 69.264Z" fill="#DCE5FF"/>
<path d="M412.838 102.561C412.838 102.561 408.366 103.109 405.65 99.948L406.469 96.3867C406.469 96.3867 407.752 98.6462 412.624 99.4738L412.838 102.561Z" fill="#DCE5FF"/>
<path d="M334.964 57.4926C334.964 57.4926 332.928 61.5095 328.781 62.0023L326.28 59.3244C326.28 59.3244 329.339 59.7986 332.789 56.2188L334.964 57.4926Z" fill="#455A64"/>
<path d="M339.464 63.4247C339.464 63.4247 338.665 67.86 334.815 69.5151L331.654 67.6555C333.891 66.6462 335.75 64.9533 336.963 62.8203L339.464 63.4247Z" fill="#37474F"/>
<path d="M182.304 6.44392C186.655 6.0162 192.532 13.2596 188.273 16.7465C185.921 18.6899 180.769 17.8437 180.834 14.2267C180.847 14.128 180.891 14.0359 180.959 13.964C181.028 13.892 181.118 13.8439 181.216 13.8268C184.637 13.0458 188.013 14.5056 187.436 18.476C187.129 20.1818 186.251 21.7327 184.947 22.8746C183.643 24.0165 181.989 24.6818 180.258 24.7617C180.044 24.7617 180.118 24.4084 180.258 24.3805C183.233 23.7482 186.042 21.8978 186.618 18.7178C186.753 18.1566 186.765 17.5731 186.654 17.0068C186.543 16.4405 186.312 15.9046 185.976 15.4354C185.575 14.941 185.034 14.5782 184.424 14.394C183.922 14.236 182.08 13.9477 181.681 14.394C180.872 15.2309 183.057 16.6256 183.708 16.8488C184.348 17.0825 185.033 17.1704 185.712 17.1061C186.39 17.0417 187.046 16.8268 187.632 16.4769C189.435 15.2216 188.989 12.8412 188.115 11.1489C186.943 8.8801 184.87 7.02042 182.211 6.93674C181.978 6.93674 182.099 6.48112 182.285 6.46252L182.304 6.44392Z" fill="#DCE5FF"/>
<path d="M175.33 158.863C173.963 155.785 174.103 152.595 170.132 151.573C168.384 151.126 164.246 150.717 162.926 152.279C162.69 152.653 162.594 153.1 162.658 153.538C162.721 153.976 162.938 154.377 163.27 154.669C164.312 155.599 165.13 154.483 165.353 153.507C165.561 152.595 165.482 151.642 165.125 150.777C164.769 149.913 164.153 149.181 163.363 148.681C161.688 147.568 159.656 147.128 157.671 147.447C155.686 147.765 153.894 148.82 152.651 150.401C152.512 150.578 152.354 150.401 152.419 150.196C155.469 143.176 170.086 148.058 165.437 154.79C164.014 156.826 161.494 155.022 161.968 152.874C162.498 150.485 166.617 150.606 168.366 150.717C170.196 150.721 171.96 151.4 173.322 152.623C174.912 154.195 175.126 156.668 175.46 158.76C175.46 158.863 175.377 158.993 175.311 158.863H175.33Z" fill="#DCE5FF"/>
<path d="M61.0623 1.82208C58.2077 0.98523 54.2838 1.21769 51.8848 3.14245C50.0252 4.63019 48.9931 7.85672 51.7175 8.96323C52.7868 9.39095 56.3109 9.39095 56.7293 7.9404C57.0268 6.92688 55.9389 6.32249 55.0649 6.19231C52.5078 5.79248 50.1089 8.48901 50.1646 10.8973C50.2576 14.5143 54.4698 15.7138 57.4453 15.7417C57.6405 15.7417 57.594 16.1137 57.4453 16.123C52.3777 16.6158 46.7243 11.9201 51.2247 7.21513C52.4427 5.95055 54.3396 5.04861 56.0877 5.74599C57.0733 6.14582 57.8544 7.03846 57.3616 8.10777C56.5712 9.82797 53.3912 10.1255 51.8476 9.6885C51.4384 9.57963 51.0559 9.38799 50.7237 9.12541C50.3915 8.86284 50.1167 8.53492 49.9162 8.16192C49.7158 7.78893 49.594 7.37878 49.5584 6.95684C49.5227 6.5349 49.574 6.11013 49.709 5.7088C50.955 1.134 57.3523 0.12978 61.1553 1.55243C61.2669 1.55243 61.2204 1.85928 61.0902 1.82208H61.0623Z" fill="#DCE5FF"/>
<path d="M27.8578 190.327C25.0032 189.49 21.0793 189.723 18.6803 191.648C16.8207 193.135 15.7792 196.362 18.513 197.468C19.5823 197.896 23.097 197.896 23.5248 196.446C23.813 195.432 22.7251 194.828 21.8604 194.698C19.294 194.298 16.9043 196.994 16.9601 199.403C17.0438 203.02 21.256 204.219 24.2314 204.247C24.436 204.247 24.3802 204.619 24.2314 204.637C19.1638 205.121 13.5104 200.425 18.0108 195.72C19.2289 194.456 21.1165 193.554 22.8646 194.251C23.8595 194.651 24.6406 195.544 24.1478 196.613C23.3574 198.333 20.1681 198.631 18.6245 198.194C18.2154 198.085 17.833 197.893 17.5011 197.631C17.1692 197.368 16.8949 197.04 16.6952 196.667C16.4955 196.293 16.3747 195.883 16.3403 195.461C16.3059 195.039 16.3586 194.615 16.4952 194.214C17.7319 189.639 24.1385 188.682 27.9415 190.058C28.0531 190.058 28.0066 190.365 27.8764 190.327H27.8578Z" fill="#DCE5FF"/>
<path d="M35.1759 56.4589C38.5791 57.4725 41.7406 63.4606 38.5791 66.185C35.8919 68.5096 30.4616 67.9796 31.3636 63.5629C31.3737 63.5132 31.396 63.4669 31.4285 63.4279C31.4609 63.389 31.5025 63.3587 31.5496 63.3397C35.1201 62.4936 36.301 66.6593 35.5479 69.4116C34.3856 73.6795 30.0711 73.633 26.9562 71.3921C26.8539 71.3177 26.9004 71.0295 27.0491 71.1039C29.5969 72.3777 33.1675 73.5028 34.7203 70.2484C35.5479 68.5096 35.5757 65.5992 33.9764 64.2975C33.5615 63.9067 33.0122 63.6903 32.4422 63.6931C31.252 63.8325 31.4566 65.125 32.1261 65.934C33.1954 67.2358 35.3433 67.0963 36.7752 66.5942C41.6755 64.8647 38.3095 58.5046 35.1108 56.7193C35.0178 56.6635 35.0364 56.4218 35.1759 56.4589Z" fill="#DCE5FF"/>
<path d="M45.9896 132.614C40.1967 133.079 41.2381 144.079 45.9152 145.567C46.2026 145.67 46.5076 145.714 46.8125 145.698C47.1174 145.682 47.416 145.606 47.6912 145.474C48.0343 145.221 48.3098 144.888 48.4931 144.504C48.6764 144.119 48.7618 143.696 48.7419 143.27C48.184 141.41 45.0225 143.772 44.6599 144.507C44.0579 145.475 43.7769 146.608 43.8571 147.745C43.9372 148.882 44.3744 149.965 45.1062 150.839C47.4866 153.415 52.0428 153.498 55.0183 152.011C55.167 151.927 55.1949 152.215 55.0927 152.289C51.8847 154.344 46.5103 154.047 44.1299 150.792C42.2702 148.189 43.5441 141.28 47.6912 141.894C51.5593 142.461 48.8813 146.869 45.9524 146.283C43.0234 145.697 41.9634 141.81 41.6844 139.402C41.3311 136.371 42.233 132.279 45.9896 132.345C46.1104 132.345 46.1011 132.605 45.9896 132.614Z" fill="#DCE5FF"/>
<path d="M118.74 39.7774C122.757 39.266 131.395 42.6506 129.145 48.146C127.945 51.0749 122.59 52.9532 120.832 49.5965C120.794 49.5051 120.794 49.4026 120.83 49.3106C120.867 49.2186 120.937 49.1445 121.027 49.1037C129.396 44.3615 138.211 58.058 129.331 63.0512C129.052 63.2093 129.061 62.7351 129.219 62.6142C129.987 62.0896 130.642 61.4171 131.146 60.636C131.65 59.8549 131.993 58.981 132.155 58.0656C132.317 57.1502 132.295 56.2116 132.089 55.305C131.884 54.3984 131.499 53.5419 130.958 52.7858C130.053 51.3415 128.766 50.1763 127.239 49.4198C126.095 48.8805 123.222 48.1181 122.153 49.2339C121.669 49.7546 121.678 49.1037 121.929 49.7081C122.168 50.0671 122.533 50.3228 122.952 50.4241C123.865 50.714 124.85 50.6812 125.742 50.3311C127.601 49.6802 129.061 47.9693 128.531 45.9144C127.555 41.7952 122.311 40.3353 118.638 40.2702C118.387 40.2702 118.545 39.796 118.74 39.7681V39.7774Z" fill="#DCE5FF"/>
<path d="M102.44 10.8882C102.44 10.8882 102.691 15.3886 99.3438 17.8899L95.8477 16.8113C95.8477 16.8113 98.1815 15.6955 99.3438 10.8789L102.44 10.8882Z" fill="#455A64"/>
<path d="M174.698 122.264C174.698 122.264 174.949 126.764 171.601 129.265L168.105 128.205C168.105 128.205 170.439 127.08 171.601 122.264H174.698Z" fill="#455A64"/>
<path d="M160.88 176.055C160.88 176.055 161.122 180.555 157.784 183.056L154.288 181.987C154.288 181.987 156.621 180.871 157.784 176.055H160.88Z" fill="#37474F"/>
<path d="M21.1816 25.2545C21.1816 25.2545 23.2273 29.2714 27.365 29.7642L29.9128 27.0862C29.9128 27.0862 27.3279 27.2908 23.9061 23.7109L21.1816 25.2545Z" fill="#455A64"/>
<path d="M64.4375 163.977C64.4375 163.977 66.4738 167.994 70.6209 168.487L73.1222 165.809C73.1222 165.809 70.5279 166.013 67.1154 162.434L64.4375 163.977Z" fill="#455A64"/>
<path d="M108.475 89.7193C108.475 89.7193 110.511 93.7362 114.658 94.229L117.15 91.5511C117.15 91.5511 114.565 91.7557 111.153 88.1758L108.475 89.7193Z" fill="#DCE5FF"/>
<path d="M148.932 37.147C148.932 37.147 150.968 41.1639 155.116 41.6568L157.608 38.9788C157.608 38.9788 155.023 39.1834 151.61 35.6035L148.932 37.147Z" fill="#455A64"/>
<path d="M62.3271 40.9866C62.3271 40.9866 66.7997 41.5445 69.5241 38.3738L68.6965 34.8125C68.6965 34.8125 67.4226 37.072 62.541 37.8996L62.3271 40.9866Z" fill="#DCE5FF"/>
<path d="M138.704 6.16481C138.704 6.16481 143.176 6.72272 145.901 3.56127L145.082 0C145.082 0 143.799 2.25021 138.917 3.08706L138.704 6.16481Z" fill="#DCE5FF"/>
<path d="M148.848 65.5061C148.848 65.5061 153.311 66.0547 156.036 62.8933L155.218 59.332C155.218 59.332 153.934 61.5915 149.053 62.4191L148.848 65.5061Z" fill="#DCE5FF"/>
<path d="M3.87744 153.926C3.87744 153.926 8.34996 154.484 11.0744 151.323L10.2561 147.752C10.2561 147.752 8.97294 150.011 4.0913 150.839L3.87744 153.926Z" fill="#DCE5FF"/>
<path d="M92.9556 57.4926C92.9556 57.4926 94.9919 61.5095 99.139 62.0023L101.64 59.3244C101.64 59.3244 98.5811 59.7986 95.1314 56.2188L92.9556 57.4926Z" fill="#455A64"/>
<path d="M88.4927 63.4247C88.4927 63.4247 89.2923 67.86 93.1419 69.5151L96.3033 67.6555C94.0664 66.6462 92.2075 64.9533 90.9939 62.8203L88.4927 63.4247Z" fill="#37474F"/>
<path d="M235.295 40.2797C235.295 40.2797 233.259 44.2966 229.112 44.7894L226.61 42.1208C226.61 42.1208 229.67 42.5857 233.119 39.0059L235.295 40.2797Z" fill="#455A64"/>
<path d="M215.248 35.4638C215.248 35.4638 214.448 39.8991 210.598 41.5635L207.437 39.7038C209.676 38.6932 211.535 36.9966 212.746 34.8594L215.248 35.4638Z" fill="#37474F"/>
</svg>
