<svg width="72" height="72" viewBox="0 0 72 72" fill="none" xmlns="http://www.w3.org/2000/svg">
<rect width="72" height="72" rx="8" fill="#0B1D50"/>
<path d="M49.1016 28.2266H47.3203C46.8672 26.9609 46.0859 25.6797 44.9766 24.3828C43.8672 23.0859 42.7656 22.3203 41.6719 22.0859C41.2031 21.9766 40.5469 21.9141 39.7031 21.8984C38.875 21.8672 38.1875 21.8516 37.6406 21.8516H32.8125V34.6953H36.2344C37.0938 34.6953 37.875 34.5938 38.5781 34.3906C39.2812 34.1875 39.9219 33.7969 40.5 33.2188C40.8594 32.8594 41.2188 32.2266 41.5781 31.3203C41.9531 30.4141 42.1953 29.625 42.3047 28.9531H44.0859V42.8281H42.3047C42.2109 42.1719 41.9688 41.3516 41.5781 40.3672C41.2031 39.3672 40.8438 38.6797 40.5 38.3047C39.9844 37.7422 39.375 37.3594 38.6719 37.1562C37.9688 36.9375 37.1562 36.8281 36.2344 36.8281H32.8125V46.4141C32.8125 47.4141 32.8828 48.2109 33.0234 48.8047C33.1797 49.3828 33.4609 49.8281 33.8672 50.1406C34.2578 50.4375 34.7891 50.6328 35.4609 50.7266C36.1484 50.8203 37.0781 50.8672 38.25 50.8672C38.7969 50.8672 39.4531 50.8594 40.2188 50.8438C40.9844 50.8281 41.6562 50.7812 42.2344 50.7031C42.8906 50.625 43.5 50.5078 44.0625 50.3516C44.6406 50.1953 45.0703 49.9688 45.3516 49.6719C46.1016 48.9062 46.9453 47.7422 47.8828 46.1797C48.8203 44.6016 49.4375 43.4219 49.7344 42.6406H51.4453L50.8125 53H19.6172V51.1719C20.0547 51.1406 20.6484 51.0781 21.3984 50.9844C22.1484 50.8906 22.6797 50.7812 22.9922 50.6562C23.5859 50.4062 23.9844 50.0938 24.1875 49.7188C24.3906 49.3281 24.4922 48.8359 24.4922 48.2422V24.7812C24.4922 24.2188 24.4062 23.7578 24.2344 23.3984C24.0625 23.0234 23.6484 22.6875 22.9922 22.3906C22.5859 22.2031 22.0156 22.0312 21.2812 21.875C20.5469 21.7188 19.9922 21.6172 19.6172 21.5703V19.7422H49.1016V28.2266Z" fill="white"/>
</svg>
