<svg width="117" height="18" viewBox="0 0 117 18" fill="none" xmlns="http://www.w3.org/2000/svg">
<path d="M15.5508 5.11328H14.6602C14.4336 4.48047 14.043 3.83984 13.4883 3.19141C12.9336 2.54297 12.3828 2.16016 11.8359 2.04297C11.6016 1.98828 11.2734 1.95703 10.8516 1.94922C10.4375 1.93359 10.0938 1.92578 9.82031 1.92578H7.40625V8.34766H9.11719C9.54688 8.34766 9.9375 8.29688 10.2891 8.19531C10.6406 8.09375 10.9609 7.89844 11.25 7.60938C11.4297 7.42969 11.6094 7.11328 11.7891 6.66016C11.9766 6.20703 12.0977 5.8125 12.1523 5.47656H13.043V12.4141H12.1523C12.1055 12.0859 11.9844 11.6758 11.7891 11.1836C11.6016 10.6836 11.4219 10.3398 11.25 10.1523C10.9922 9.87109 10.6875 9.67969 10.3359 9.57812C9.98438 9.46875 9.57812 9.41406 9.11719 9.41406H7.40625V14.207C7.40625 14.707 7.44141 15.1055 7.51172 15.4023C7.58984 15.6914 7.73047 15.9141 7.93359 16.0703C8.12891 16.2188 8.39453 16.3164 8.73047 16.3633C9.07422 16.4102 9.53906 16.4336 10.125 16.4336C10.3984 16.4336 10.7266 16.4297 11.1094 16.4219C11.4922 16.4141 11.8281 16.3906 12.1172 16.3516C12.4453 16.3125 12.75 16.2539 13.0312 16.1758C13.3203 16.0977 13.5352 15.9844 13.6758 15.8359C14.0508 15.4531 14.4727 14.8711 14.9414 14.0898C15.4102 13.3008 15.7188 12.7109 15.8672 12.3203H16.7227L16.4062 17.5H0.808594V16.5859C1.02734 16.5703 1.32422 16.5391 1.69922 16.4922C2.07422 16.4453 2.33984 16.3906 2.49609 16.3281C2.79297 16.2031 2.99219 16.0469 3.09375 15.8594C3.19531 15.6641 3.24609 15.418 3.24609 15.1211V3.39062C3.24609 3.10938 3.20312 2.87891 3.11719 2.69922C3.03125 2.51172 2.82422 2.34375 2.49609 2.19531C2.29297 2.10156 2.00781 2.01563 1.64062 1.9375C1.27344 1.85937 0.996094 1.80859 0.808594 1.78516V0.871094H15.5508V5.11328ZM25.1016 17.9453C24.0859 17.9453 23.1367 17.8203 22.2539 17.5703C21.3789 17.3203 20.6367 17.0234 20.0273 16.6797L19.2188 17.5H18.2227L18.0703 11.4883H19.0781C19.3047 12.0586 19.5938 12.6602 19.9453 13.293C20.2969 13.9258 20.7031 14.4922 21.1641 14.9922C21.6406 15.5156 22.1719 15.9414 22.7578 16.2695C23.3516 16.5977 24.043 16.7617 24.832 16.7617C25.8945 16.7617 26.707 16.5039 27.2695 15.9883C27.8398 15.4648 28.125 14.8086 28.125 14.0195C28.125 13.3711 27.8828 12.8281 27.3984 12.3906C26.9219 11.9453 26.1797 11.5625 25.1719 11.2422C24.5156 11.0312 23.9102 10.8359 23.3555 10.6562C22.8086 10.4766 22.293 10.293 21.8086 10.1055C20.6914 9.66016 19.8594 9.02344 19.3125 8.19531C18.7734 7.36719 18.5039 6.44141 18.5039 5.41797C18.5039 4.76953 18.6445 4.14844 18.9258 3.55469C19.207 2.95313 19.6172 2.41406 20.1562 1.9375C20.6719 1.49219 21.332 1.12891 22.1367 0.847656C22.9414 0.566406 23.8164 0.425781 24.7617 0.425781C25.6836 0.425781 26.5469 0.554688 27.3516 0.8125C28.1562 1.0625 28.7891 1.31641 29.25 1.57422L29.9648 0.871094H30.9844L31.0781 6.54297H30.0703C29.8359 5.93359 29.5586 5.3125 29.2383 4.67969C28.9258 4.03906 28.5938 3.50781 28.2422 3.08594C27.8594 2.63281 27.418 2.27344 26.918 2.00781C26.418 1.73438 25.832 1.59766 25.1602 1.59766C24.3164 1.59766 23.625 1.83594 23.0859 2.3125C22.5547 2.78906 22.2891 3.37891 22.2891 4.08203C22.2891 4.74609 22.5195 5.28906 22.9805 5.71094C23.4492 6.13281 24.1758 6.50391 25.1602 6.82422C25.7383 7.01953 26.3281 7.21484 26.9297 7.41016C27.5312 7.60547 28.0664 7.79297 28.5352 7.97266C29.668 8.41016 30.5273 9.01562 31.1133 9.78906C31.707 10.5547 32.0039 11.5078 32.0039 12.6484C32.0039 13.3672 31.8359 14.0625 31.5 14.7344C31.1641 15.4062 30.7109 15.9648 30.1406 16.4102C29.5156 16.9023 28.793 17.2812 27.9727 17.5469C27.1523 17.8125 26.1953 17.9453 25.1016 17.9453ZM42.4336 17.9453C41.2148 17.9453 40.0742 17.75 39.0117 17.3594C37.9492 16.9609 37.0234 16.3867 36.2344 15.6367C35.4609 14.9023 34.8516 13.9961 34.4062 12.918C33.9609 11.832 33.7383 10.6406 33.7383 9.34375C33.7383 8.05469 33.9609 6.86328 34.4062 5.76953C34.8594 4.66797 35.4922 3.71484 36.3047 2.91016C37.1016 2.12109 38.0586 1.51172 39.1758 1.08203C40.293 0.644531 41.4883 0.425781 42.7617 0.425781C43.6836 0.425781 44.5234 0.539063 45.2812 0.765625C46.0391 0.984375 46.6797 1.23438 47.2031 1.51562L47.9297 0.871094H48.9492L49.0547 6.94141H48.0234C47.4375 5.08984 46.7344 3.73047 45.9141 2.86328C45.0938 1.99609 44.0938 1.5625 42.9141 1.5625C41.4453 1.5625 40.3281 2.21094 39.5625 3.50781C38.7969 4.79688 38.4141 6.60938 38.4141 8.94531C38.4141 10.2656 38.543 11.3945 38.8008 12.332C39.0664 13.2617 39.4102 14.0117 39.832 14.582C40.2852 15.1758 40.8203 15.6133 41.4375 15.8945C42.0547 16.168 42.7383 16.3047 43.4883 16.3047C44.582 16.3047 45.5547 16.0078 46.4062 15.4141C47.2656 14.8203 48.0469 13.9219 48.75 12.7188L49.7578 13.3281C49.4219 14.0156 49.0391 14.6328 48.6094 15.1797C48.1797 15.7188 47.6836 16.1836 47.1211 16.5742C46.5039 17.0039 45.8203 17.3398 45.0703 17.582C44.3281 17.8242 43.4492 17.9453 42.4336 17.9453ZM69.9844 17.5H63.6094C62.5078 15.8125 61.5898 14.4688 60.8555 13.4688C60.1289 12.4688 59.2227 11.3125 58.1367 10H57.4922V15.0508C57.4922 15.332 57.543 15.5703 57.6445 15.7656C57.7539 15.9609 57.957 16.125 58.2539 16.2578C58.4023 16.3203 58.6328 16.3867 58.9453 16.457C59.2656 16.5195 59.5391 16.5625 59.7656 16.5859V17.5H50.8945V16.5859C51.1211 16.5625 51.418 16.5312 51.7852 16.4922C52.1602 16.4453 52.4258 16.3906 52.582 16.3281C52.8789 16.2031 53.0781 16.0469 53.1797 15.8594C53.2812 15.6641 53.332 15.418 53.332 15.1211V3.39062C53.332 3.10938 53.2891 2.875 53.2031 2.6875C53.1172 2.5 52.9102 2.33594 52.582 2.19531C52.332 2.09375 52.0352 2.00781 51.6914 1.9375C51.3555 1.86719 51.0898 1.81641 50.8945 1.78516V0.871094H60.2227C62.3086 0.871094 63.8906 1.19922 64.9688 1.85547C66.0547 2.50391 66.5977 3.48828 66.5977 4.80859C66.5977 5.97266 66.2617 6.91016 65.5898 7.62109C64.9258 8.32422 63.9102 8.875 62.543 9.27344C63.0742 9.96094 63.6914 10.7578 64.3945 11.6641C65.1055 12.5703 65.8438 13.4961 66.6094 14.4414C66.8516 14.7461 67.1797 15.1211 67.5938 15.5664C68.0156 16.0039 68.3867 16.2734 68.707 16.375C68.8867 16.4297 69.1133 16.4766 69.3867 16.5156C69.668 16.5547 69.8672 16.5781 69.9844 16.5859V17.5ZM62.0039 5.13672C62.0039 4.02734 61.6914 3.21875 61.0664 2.71094C60.4492 2.19531 59.5664 1.9375 58.418 1.9375H57.4922V8.89844H58.3828C59.5312 8.89844 60.4219 8.59766 61.0547 7.99609C61.6875 7.39453 62.0039 6.44141 62.0039 5.13672ZM85.4062 2.72266C86.2266 3.47266 86.875 4.37891 87.3516 5.44141C87.8359 6.50391 88.0781 7.71484 88.0781 9.07422C88.0781 10.2852 87.875 11.4375 87.4688 12.5312C87.0625 13.625 86.4766 14.5664 85.7109 15.3555C84.9062 16.1758 83.9609 16.8164 82.875 17.2773C81.7891 17.7305 80.4961 17.957 78.9961 17.957C77.7852 17.957 76.6406 17.7578 75.5625 17.3594C74.4844 16.9609 73.5352 16.3828 72.7148 15.625C71.9023 14.8828 71.2578 13.9805 70.7812 12.918C70.3047 11.8555 70.0664 10.6719 70.0664 9.36719C70.0664 8.00781 70.2969 6.77734 70.7578 5.67578C71.2266 4.56641 71.8672 3.61719 72.6797 2.82812C73.4844 2.05469 74.4375 1.46094 75.5391 1.04688C76.6484 0.625 77.8281 0.414062 79.0781 0.414062C80.3203 0.414062 81.4844 0.617187 82.5703 1.02344C83.6641 1.42969 84.6094 1.99609 85.4062 2.72266ZM82.3945 14.6172C82.7461 13.9062 83 13.1016 83.1562 12.2031C83.3125 11.3047 83.3906 10.2891 83.3906 9.15625C83.3906 8.19531 83.3203 7.26172 83.1797 6.35547C83.0469 5.44141 82.8164 4.62891 82.4883 3.91797C82.1523 3.20703 81.707 2.63672 81.1523 2.20703C80.5977 1.77734 79.9062 1.5625 79.0781 1.5625C77.6641 1.5625 76.5898 2.23437 75.8555 3.57812C75.1211 4.91406 74.7539 6.80469 74.7539 9.25C74.7539 10.2891 74.832 11.2695 74.9883 12.1914C75.1523 13.1133 75.4062 13.918 75.75 14.6055C76.1016 15.3008 76.5469 15.8438 77.0859 16.2344C77.625 16.6172 78.2891 16.8086 79.0781 16.8086C79.8516 16.8086 80.5156 16.6133 81.0703 16.2227C81.625 15.832 82.0664 15.2969 82.3945 14.6172ZM116.402 1.80859C116.16 1.83203 115.918 1.88672 115.676 1.97266C115.434 2.05078 115.195 2.15234 114.961 2.27734C114.602 2.48047 114.344 2.70312 114.188 2.94531C114.039 3.1875 113.902 3.48047 113.777 3.82422C113.348 5.01172 112.684 6.91406 111.785 9.53125C110.895 12.1484 109.965 14.8672 108.996 17.6875H106.641L102.246 5.32422L98.2852 17.6875H95.9297C94.625 13.8906 93.625 10.9688 92.9297 8.92188C92.2344 6.86719 91.6484 5.14453 91.1719 3.75391C91.0234 3.33203 90.8555 3.02734 90.668 2.83984C90.4805 2.64453 90.2383 2.44922 89.9414 2.25391C89.7305 2.11328 89.5039 2.01172 89.2617 1.94922C89.0273 1.87891 88.7539 1.82422 88.4414 1.78516V0.871094H97.3125V1.76172C96.7891 1.82422 96.3984 1.88672 96.1406 1.94922C95.8828 2.00391 95.6797 2.0625 95.5312 2.125C95.3906 2.1875 95.3047 2.25391 95.2734 2.32422C95.2422 2.39453 95.2266 2.45703 95.2266 2.51172C95.2266 2.62109 95.2383 2.72656 95.2617 2.82812C95.293 2.92969 95.3242 3.04688 95.3555 3.17969C95.543 3.78906 95.9219 4.94531 96.4922 6.64844C97.0625 8.35156 97.7656 10.4648 98.6016 12.9883L102.387 0.871094H104.871L109.266 13.3633C109.914 11.3555 110.43 9.71484 110.812 8.44141C111.203 7.16797 111.531 6.07812 111.797 5.17188C111.953 4.61719 112.078 4.15234 112.172 3.77734C112.266 3.40234 112.312 3.07812 112.312 2.80469C112.312 2.64062 112.234 2.5 112.078 2.38281C111.93 2.26562 111.727 2.16406 111.469 2.07812C111.25 2.00781 110.965 1.95312 110.613 1.91406C110.27 1.86719 109.969 1.83203 109.711 1.80859V0.871094H116.402V1.80859Z" fill="#0B1D50"/>
</svg>
