<svg width="117" height="28" viewBox="0 0 117 28" fill="none" xmlns="http://www.w3.org/2000/svg">
<path d="M15.5508 10.1133H14.6602C14.4336 9.48047 14.043 8.83984 13.4883 8.19141C12.9336 7.54297 12.3828 7.16016 11.8359 7.04297C11.6016 6.98828 11.2734 6.95703 10.8516 6.94922C10.4375 6.93359 10.0938 6.92578 9.82031 6.92578H7.40625V13.3477H9.11719C9.54688 13.3477 9.9375 13.2969 10.2891 13.1953C10.6406 13.0938 10.9609 12.8984 11.25 12.6094C11.4297 12.4297 11.6094 12.1133 11.7891 11.6602C11.9766 11.207 12.0977 10.8125 12.1523 10.4766H13.043V17.4141H12.1523C12.1055 17.0859 11.9844 16.6758 11.7891 16.1836C11.6016 15.6836 11.4219 15.3398 11.25 15.1523C10.9922 14.8711 10.6875 14.6797 10.3359 14.5781C9.98438 14.4688 9.57812 14.4141 9.11719 14.4141H7.40625V19.207C7.40625 19.707 7.44141 20.1055 7.51172 20.4023C7.58984 20.6914 7.73047 20.9141 7.93359 21.0703C8.12891 21.2188 8.39453 21.3164 8.73047 21.3633C9.07422 21.4102 9.53906 21.4336 10.125 21.4336C10.3984 21.4336 10.7266 21.4297 11.1094 21.4219C11.4922 21.4141 11.8281 21.3906 12.1172 21.3516C12.4453 21.3125 12.75 21.2539 13.0312 21.1758C13.3203 21.0977 13.5352 20.9844 13.6758 20.8359C14.0508 20.4531 14.4727 19.8711 14.9414 19.0898C15.4102 18.3008 15.7188 17.7109 15.8672 17.3203H16.7227L16.4062 22.5H0.808594V21.5859C1.02734 21.5703 1.32422 21.5391 1.69922 21.4922C2.07422 21.4453 2.33984 21.3906 2.49609 21.3281C2.79297 21.2031 2.99219 21.0469 3.09375 20.8594C3.19531 20.6641 3.24609 20.418 3.24609 20.1211V8.39062C3.24609 8.10938 3.20312 7.87891 3.11719 7.69922C3.03125 7.51172 2.82422 7.34375 2.49609 7.19531C2.29297 7.10156 2.00781 7.01563 1.64062 6.9375C1.27344 6.85937 0.996094 6.80859 0.808594 6.78516V5.87109H15.5508V10.1133ZM25.1016 22.9453C24.0859 22.9453 23.1367 22.8203 22.2539 22.5703C21.3789 22.3203 20.6367 22.0234 20.0273 21.6797L19.2188 22.5H18.2227L18.0703 16.4883H19.0781C19.3047 17.0586 19.5938 17.6602 19.9453 18.293C20.2969 18.9258 20.7031 19.4922 21.1641 19.9922C21.6406 20.5156 22.1719 20.9414 22.7578 21.2695C23.3516 21.5977 24.043 21.7617 24.832 21.7617C25.8945 21.7617 26.707 21.5039 27.2695 20.9883C27.8398 20.4648 28.125 19.8086 28.125 19.0195C28.125 18.3711 27.8828 17.8281 27.3984 17.3906C26.9219 16.9453 26.1797 16.5625 25.1719 16.2422C24.5156 16.0312 23.9102 15.8359 23.3555 15.6562C22.8086 15.4766 22.293 15.293 21.8086 15.1055C20.6914 14.6602 19.8594 14.0234 19.3125 13.1953C18.7734 12.3672 18.5039 11.4414 18.5039 10.418C18.5039 9.76953 18.6445 9.14844 18.9258 8.55469C19.207 7.95313 19.6172 7.41406 20.1562 6.9375C20.6719 6.49219 21.332 6.12891 22.1367 5.84766C22.9414 5.56641 23.8164 5.42578 24.7617 5.42578C25.6836 5.42578 26.5469 5.55469 27.3516 5.8125C28.1562 6.0625 28.7891 6.31641 29.25 6.57422L29.9648 5.87109H30.9844L31.0781 11.543H30.0703C29.8359 10.9336 29.5586 10.3125 29.2383 9.67969C28.9258 9.03906 28.5938 8.50781 28.2422 8.08594C27.8594 7.63281 27.418 7.27344 26.918 7.00781C26.418 6.73438 25.832 6.59766 25.1602 6.59766C24.3164 6.59766 23.625 6.83594 23.0859 7.3125C22.5547 7.78906 22.2891 8.37891 22.2891 9.08203C22.2891 9.74609 22.5195 10.2891 22.9805 10.7109C23.4492 11.1328 24.1758 11.5039 25.1602 11.8242C25.7383 12.0195 26.3281 12.2148 26.9297 12.4102C27.5312 12.6055 28.0664 12.793 28.5352 12.9727C29.668 13.4102 30.5273 14.0156 31.1133 14.7891C31.707 15.5547 32.0039 16.5078 32.0039 17.6484C32.0039 18.3672 31.8359 19.0625 31.5 19.7344C31.1641 20.4062 30.7109 20.9648 30.1406 21.4102C29.5156 21.9023 28.793 22.2812 27.9727 22.5469C27.1523 22.8125 26.1953 22.9453 25.1016 22.9453ZM42.4336 22.9453C41.2148 22.9453 40.0742 22.75 39.0117 22.3594C37.9492 21.9609 37.0234 21.3867 36.2344 20.6367C35.4609 19.9023 34.8516 18.9961 34.4062 17.918C33.9609 16.832 33.7383 15.6406 33.7383 14.3438C33.7383 13.0547 33.9609 11.8633 34.4062 10.7695C34.8594 9.66797 35.4922 8.71484 36.3047 7.91016C37.1016 7.12109 38.0586 6.51172 39.1758 6.08203C40.293 5.64453 41.4883 5.42578 42.7617 5.42578C43.6836 5.42578 44.5234 5.53906 45.2812 5.76562C46.0391 5.98438 46.6797 6.23438 47.2031 6.51562L47.9297 5.87109H48.9492L49.0547 11.9414H48.0234C47.4375 10.0898 46.7344 8.73047 45.9141 7.86328C45.0938 6.99609 44.0938 6.5625 42.9141 6.5625C41.4453 6.5625 40.3281 7.21094 39.5625 8.50781C38.7969 9.79688 38.4141 11.6094 38.4141 13.9453C38.4141 15.2656 38.543 16.3945 38.8008 17.332C39.0664 18.2617 39.4102 19.0117 39.832 19.582C40.2852 20.1758 40.8203 20.6133 41.4375 20.8945C42.0547 21.168 42.7383 21.3047 43.4883 21.3047C44.582 21.3047 45.5547 21.0078 46.4062 20.4141C47.2656 19.8203 48.0469 18.9219 48.75 17.7188L49.7578 18.3281C49.4219 19.0156 49.0391 19.6328 48.6094 20.1797C48.1797 20.7188 47.6836 21.1836 47.1211 21.5742C46.5039 22.0039 45.8203 22.3398 45.0703 22.582C44.3281 22.8242 43.4492 22.9453 42.4336 22.9453ZM69.9844 22.5H63.6094C62.5078 20.8125 61.5898 19.4688 60.8555 18.4688C60.1289 17.4688 59.2227 16.3125 58.1367 15H57.4922V20.0508C57.4922 20.332 57.543 20.5703 57.6445 20.7656C57.7539 20.9609 57.957 21.125 58.2539 21.2578C58.4023 21.3203 58.6328 21.3867 58.9453 21.457C59.2656 21.5195 59.5391 21.5625 59.7656 21.5859V22.5H50.8945V21.5859C51.1211 21.5625 51.418 21.5312 51.7852 21.4922C52.1602 21.4453 52.4258 21.3906 52.582 21.3281C52.8789 21.2031 53.0781 21.0469 53.1797 20.8594C53.2812 20.6641 53.332 20.418 53.332 20.1211V8.39062C53.332 8.10938 53.2891 7.875 53.2031 7.6875C53.1172 7.5 52.9102 7.33594 52.582 7.19531C52.332 7.09375 52.0352 7.00781 51.6914 6.9375C51.3555 6.86719 51.0898 6.81641 50.8945 6.78516V5.87109H60.2227C62.3086 5.87109 63.8906 6.19922 64.9688 6.85547C66.0547 7.50391 66.5977 8.48828 66.5977 9.80859C66.5977 10.9727 66.2617 11.9102 65.5898 12.6211C64.9258 13.3242 63.9102 13.875 62.543 14.2734C63.0742 14.9609 63.6914 15.7578 64.3945 16.6641C65.1055 17.5703 65.8438 18.4961 66.6094 19.4414C66.8516 19.7461 67.1797 20.1211 67.5938 20.5664C68.0156 21.0039 68.3867 21.2734 68.707 21.375C68.8867 21.4297 69.1133 21.4766 69.3867 21.5156C69.668 21.5547 69.8672 21.5781 69.9844 21.5859V22.5ZM62.0039 10.1367C62.0039 9.02734 61.6914 8.21875 61.0664 7.71094C60.4492 7.19531 59.5664 6.9375 58.418 6.9375H57.4922V13.8984H58.3828C59.5312 13.8984 60.4219 13.5977 61.0547 12.9961C61.6875 12.3945 62.0039 11.4414 62.0039 10.1367ZM85.4062 7.72266C86.2266 8.47266 86.875 9.37891 87.3516 10.4414C87.8359 11.5039 88.0781 12.7148 88.0781 14.0742C88.0781 15.2852 87.875 16.4375 87.4688 17.5312C87.0625 18.625 86.4766 19.5664 85.7109 20.3555C84.9062 21.1758 83.9609 21.8164 82.875 22.2773C81.7891 22.7305 80.4961 22.957 78.9961 22.957C77.7852 22.957 76.6406 22.7578 75.5625 22.3594C74.4844 21.9609 73.5352 21.3828 72.7148 20.625C71.9023 19.8828 71.2578 18.9805 70.7812 17.918C70.3047 16.8555 70.0664 15.6719 70.0664 14.3672C70.0664 13.0078 70.2969 11.7773 70.7578 10.6758C71.2266 9.56641 71.8672 8.61719 72.6797 7.82812C73.4844 7.05469 74.4375 6.46094 75.5391 6.04688C76.6484 5.625 77.8281 5.41406 79.0781 5.41406C80.3203 5.41406 81.4844 5.61719 82.5703 6.02344C83.6641 6.42969 84.6094 6.99609 85.4062 7.72266ZM82.3945 19.6172C82.7461 18.9062 83 18.1016 83.1562 17.2031C83.3125 16.3047 83.3906 15.2891 83.3906 14.1562C83.3906 13.1953 83.3203 12.2617 83.1797 11.3555C83.0469 10.4414 82.8164 9.62891 82.4883 8.91797C82.1523 8.20703 81.707 7.63672 81.1523 7.20703C80.5977 6.77734 79.9062 6.5625 79.0781 6.5625C77.6641 6.5625 76.5898 7.23437 75.8555 8.57812C75.1211 9.91406 74.7539 11.8047 74.7539 14.25C74.7539 15.2891 74.832 16.2695 74.9883 17.1914C75.1523 18.1133 75.4062 18.918 75.75 19.6055C76.1016 20.3008 76.5469 20.8438 77.0859 21.2344C77.625 21.6172 78.2891 21.8086 79.0781 21.8086C79.8516 21.8086 80.5156 21.6133 81.0703 21.2227C81.625 20.832 82.0664 20.2969 82.3945 19.6172ZM116.402 6.80859C116.16 6.83203 115.918 6.88672 115.676 6.97266C115.434 7.05078 115.195 7.15234 114.961 7.27734C114.602 7.48047 114.344 7.70312 114.188 7.94531C114.039 8.1875 113.902 8.48047 113.777 8.82422C113.348 10.0117 112.684 11.9141 111.785 14.5312C110.895 17.1484 109.965 19.8672 108.996 22.6875H106.641L102.246 10.3242L98.2852 22.6875H95.9297C94.625 18.8906 93.625 15.9688 92.9297 13.9219C92.2344 11.8672 91.6484 10.1445 91.1719 8.75391C91.0234 8.33203 90.8555 8.02734 90.668 7.83984C90.4805 7.64453 90.2383 7.44922 89.9414 7.25391C89.7305 7.11328 89.5039 7.01172 89.2617 6.94922C89.0273 6.87891 88.7539 6.82422 88.4414 6.78516V5.87109H97.3125V6.76172C96.7891 6.82422 96.3984 6.88672 96.1406 6.94922C95.8828 7.00391 95.6797 7.0625 95.5312 7.125C95.3906 7.1875 95.3047 7.25391 95.2734 7.32422C95.2422 7.39453 95.2266 7.45703 95.2266 7.51172C95.2266 7.62109 95.2383 7.72656 95.2617 7.82812C95.293 7.92969 95.3242 8.04688 95.3555 8.17969C95.543 8.78906 95.9219 9.94531 96.4922 11.6484C97.0625 13.3516 97.7656 15.4648 98.6016 17.9883L102.387 5.87109H104.871L109.266 18.3633C109.914 16.3555 110.43 14.7148 110.812 13.4414C111.203 12.168 111.531 11.0781 111.797 10.1719C111.953 9.61719 112.078 9.15234 112.172 8.77734C112.266 8.40234 112.312 8.07812 112.312 7.80469C112.312 7.64062 112.234 7.5 112.078 7.38281C111.93 7.26562 111.727 7.16406 111.469 7.07812C111.25 7.00781 110.965 6.95312 110.613 6.91406C110.27 6.86719 109.969 6.83203 109.711 6.80859V5.87109H116.402V6.80859Z" fill="white"/>
</svg>
